# Blender v2.82 (sub 7) OBJ File: ''
# www.blender.org
mtllib dollar_bill.mtl
o Cube_Cube.010
v 0.000000 0.000000 0.000000
v 0.000000 0.000000 -0.061400
v 0.156000 0.000000 -0.061400
v 0.156000 0.000000 0.000000
v 0.000000 0.000109 0.000000
v 0.000000 0.000109 -0.061400
v 0.156000 0.000109 -0.061400
v 0.156000 0.000109 0.000000
vn 0.0000 -1.0000 0.0000
vn 0.0000 1.0000 0.0000
vn -1.0000 0.0000 0.0000
vn 0.0000 0.0000 -1.0000
vn 1.0000 0.0000 0.0000
vn 0.0000 0.0000 1.0000
usemtl None
s off
f 1//1 2//1 3//1 4//1
f 5//2 8//2 7//2 6//2
f 1//3 5//3 6//3 2//3
f 2//4 6//4 7//4 3//4
f 3//5 7//5 8//5 4//5
f 5//6 1//6 4//6 8//6
